<?xml version="1.0" encoding="UTF-8" standalone="no"?>
<!DOCTYPE svg PUBLIC "-//W3C//DTD SVG 1.1//EN"
 "http://www.w3.org/Graphics/SVG/1.1/DTD/svg11.dtd">
<!-- Generated by graphviz version 14.0.4 (0)
 -->
<!-- Title: modules Pages: 1 -->
<svg width="800pt" height="408pt"
 viewBox="0.00 0.00 800.00 408.00" xmlns="http://www.w3.org/2000/svg" xmlns:xlink="http://www.w3.org/1999/xlink">
<g id="graph0" class="graph" transform="scale(1 1) rotate(0) translate(4 404)">
<title>modules</title>
<g id="clust1" class="cluster">
<title>cluster_navigation</title>
<polygon fill="#aa96da" fill-opacity="0.062745" stroke="#aa96da" stroke-dasharray="5,2" points="440.95,-8 440.95,-250 622.85,-250 622.85,-8 440.95,-8"/>
<text xml:space="preserve" text-anchor="middle" x="580.35" y="-232.7" font-family="fixed" font-size="14.00" fill="#b5e4f4">navigation</text>
</g>
<g id="clust2" class="cluster">
<title>cluster_perception</title>
<polygon fill="#9575cd" fill-opacity="0.062745" stroke="#9575cd" stroke-dasharray="5,2" points="473.57,-258 473.57,-392 590.22,-392 590.22,-258 473.57,-258"/>
<text xml:space="preserve" text-anchor="middle" x="546.6" y="-374.7" font-family="fixed" font-size="14.00" fill="#b5e4f4">perception</text>
</g>
<g id="clust3" class="cluster">
<title>cluster_robot</title>
<polygon fill="#64b5f6" fill-opacity="0.062745" stroke="#64b5f6" stroke-dasharray="5,2" points="106.15,-62 106.15,-250 226.55,-250 226.55,-62 106.15,-62"/>
<text xml:space="preserve" text-anchor="middle" x="200.93" y="-232.7" font-family="fixed" font-size="14.00" fill="#b5e4f4">robot</text>
</g>
<!-- AstarPlanner -->
<g id="node1" class="node">
<title>AstarPlanner</title>
<polygon fill="#0b0f0f" stroke="#5c9ff0" points="576.23,-106 487.57,-106 487.57,-70 576.23,-70 576.23,-106"/>
<text xml:space="preserve" text-anchor="middle" x="531.9" y="-85.22" font-family="fixed" font-size="12.00" fill="#b5e4f4">AstarPlanner</text>
</g>
<!-- chan_path_Path -->
<g id="node18" class="node">
<title>chan_path_Path</title>
<polygon fill="#f06292" fill-opacity="0.207843" stroke="#f06292" points="747.55,-61.73 691.72,-61.73 691.72,-40.27 751.12,-40.27 751.12,-58.15 747.55,-61.73"/>
<polyline fill="none" stroke="#f06292" points="747.55,-61.73 747.55,-58.15"/>
<polyline fill="none" stroke="#f06292" points="751.12,-58.15 747.55,-58.15"/>
<text xml:space="preserve" text-anchor="middle" x="721.42" y="-48.62" font-family="fixed" font-size="10.00" fill="#b5e4f4">path:Path</text>
</g>
<!-- AstarPlanner&#45;&gt;chan_path_Path -->
<g id="edge20" class="edge">
<title>AstarPlanner&#45;&gt;chan_path_Path</title>
<path fill="none" stroke="#f06292" d="M576.39,-79.42C611.77,-72.44 660.71,-62.78 691.46,-56.72"/>
</g>
<!-- BehaviorTreeNavigator -->
<g id="node2" class="node">
<title>BehaviorTreeNavigator</title>
<polygon fill="#0b0f0f" stroke="#5c9ff0" points="604.35,-160 459.45,-160 459.45,-124 604.35,-124 604.35,-160"/>
<text xml:space="preserve" text-anchor="middle" x="531.9" y="-139.22" font-family="fixed" font-size="12.00" fill="#b5e4f4">BehaviorTreeNavigator</text>
</g>
<!-- chan_goal_reached_Bool -->
<g id="node14" class="node">
<title>chan_goal_reached_Bool</title>
<polygon fill="#dce775" fill-opacity="0.207843" stroke="#dce775" points="767.8,-156.72 671.47,-156.72 671.47,-135.28 771.38,-135.28 771.38,-153.15 767.8,-156.72"/>
<polyline fill="none" stroke="#dce775" points="767.8,-156.72 767.8,-153.15"/>
<polyline fill="none" stroke="#dce775" points="771.38,-153.15 767.8,-153.15"/>
<text xml:space="preserve" text-anchor="middle" x="721.42" y="-143.62" font-family="fixed" font-size="10.00" fill="#b5e4f4">goal_reached:Bool</text>
</g>
<!-- BehaviorTreeNavigator&#45;&gt;chan_goal_reached_Bool -->
<g id="edge12" class="edge">
<title>BehaviorTreeNavigator&#45;&gt;chan_goal_reached_Bool</title>
<path fill="none" stroke="#dce775" d="M604.6,-143.53C626.83,-144 650.81,-144.52 671.16,-144.95"/>
</g>
<!-- chan_target_PoseStamped -->
<g id="node19" class="node">
<title>chan_target_PoseStamped</title>
<polygon fill="#ff6b6b" fill-opacity="0.207843" stroke="#ff6b6b" points="772.67,-107.72 666.6,-107.72 666.6,-86.28 776.25,-86.28 776.25,-104.15 772.67,-107.72"/>
<polyline fill="none" stroke="#ff6b6b" points="772.67,-107.72 772.67,-104.15"/>
<polyline fill="none" stroke="#ff6b6b" points="776.25,-104.15 772.67,-104.15"/>
<text xml:space="preserve" text-anchor="middle" x="721.42" y="-94.62" font-family="fixed" font-size="10.00" fill="#b5e4f4">target:PoseStamped</text>
</g>
<!-- BehaviorTreeNavigator&#45;&gt;chan_target_PoseStamped -->
<g id="edge22" class="edge">
<title>BehaviorTreeNavigator&#45;&gt;chan_target_PoseStamped</title>
<path fill="none" stroke="#ff6b6b" d="M604.6,-124.79C627.76,-119.24 652.82,-113.22 673.69,-108.21"/>
</g>
<!-- HolonomicLocalPlanner -->
<g id="node3" class="node">
<title>HolonomicLocalPlanner</title>
<polygon fill="#0b0f0f" stroke="#5c9ff0" points="606.98,-52 456.82,-52 456.82,-16 606.98,-16 606.98,-52"/>
<text xml:space="preserve" text-anchor="middle" x="531.9" y="-31.23" font-family="fixed" font-size="12.00" fill="#b5e4f4">HolonomicLocalPlanner</text>
</g>
<!-- chan_cmd_vel_Twist -->
<g id="node11" class="node">
<title>chan_cmd_vel_Twist</title>
<polygon fill="#4db6ac" fill-opacity="0.207843" stroke="#4db6ac" points="74.58,-127.72 0,-127.72 0,-106.28 78.15,-106.28 78.15,-124.15 74.58,-127.72"/>
<polyline fill="none" stroke="#4db6ac" points="74.58,-127.72 74.58,-124.15"/>
<polyline fill="none" stroke="#4db6ac" points="78.15,-124.15 74.58,-124.15"/>
<text xml:space="preserve" text-anchor="middle" x="39.08" y="-114.62" font-family="fixed" font-size="10.00" fill="#b5e4f4">cmd_vel:Twist</text>
</g>
<!-- HolonomicLocalPlanner&#45;&gt;chan_cmd_vel_Twist -->
<g id="edge3" class="edge">
<title>HolonomicLocalPlanner&#45;&gt;chan_cmd_vel_Twist</title>
<path fill="none" stroke="#4db6ac" d="M456.64,-23.84C369.2,-15.06 221.3,-10.31 106.15,-58 81.43,-68.24 59.79,-91.82 48.46,-105.87"/>
</g>
<!-- WavefrontFrontierExplorer -->
<g id="node4" class="node">
<title>WavefrontFrontierExplorer</title>
<polygon fill="#0b0f0f" stroke="#5c9ff0" points="614.85,-214 448.95,-214 448.95,-178 614.85,-178 614.85,-214"/>
<text xml:space="preserve" text-anchor="middle" x="531.9" y="-193.22" font-family="fixed" font-size="12.00" fill="#b5e4f4">WavefrontFrontierExplorer</text>
</g>
<!-- chan_goal_request_PoseStamped -->
<g id="node15" class="node">
<title>chan_goal_request_PoseStamped</title>
<polygon fill="#fff59d" fill-opacity="0.207843" stroke="#fff59d" points="788.42,-202.72 650.85,-202.72 650.85,-181.28 792,-181.28 792,-199.15 788.42,-202.72"/>
<polyline fill="none" stroke="#fff59d" points="788.42,-202.72 788.42,-199.15"/>
<polyline fill="none" stroke="#fff59d" points="792,-199.15 788.42,-199.15"/>
<text xml:space="preserve" text-anchor="middle" x="721.42" y="-189.62" font-family="fixed" font-size="10.00" fill="#b5e4f4">goal_request:PoseStamped</text>
</g>
<!-- WavefrontFrontierExplorer&#45;&gt;chan_goal_request_PoseStamped -->
<g id="edge14" class="edge">
<title>WavefrontFrontierExplorer&#45;&gt;chan_goal_request_PoseStamped</title>
<path fill="none" stroke="#fff59d" d="M615.15,-194.25C626.96,-193.99 639.02,-193.74 650.56,-193.49"/>
</g>
<!-- ObjectTracking -->
<g id="node5" class="node">
<title>ObjectTracking</title>
<polygon fill="#0b0f0f" stroke="#5c9ff0" points="581.48,-356 482.32,-356 482.32,-320 581.48,-320 581.48,-356"/>
<text xml:space="preserve" text-anchor="middle" x="531.9" y="-335.23" font-family="fixed" font-size="12.00" fill="#b5e4f4">ObjectTracking</text>
</g>
<!-- SpatialMemory -->
<g id="node6" class="node">
<title>SpatialMemory</title>
<polygon fill="#0b0f0f" stroke="#5c9ff0" points="582.23,-302 481.57,-302 481.57,-266 582.23,-266 582.23,-302"/>
<text xml:space="preserve" text-anchor="middle" x="531.9" y="-281.23" font-family="fixed" font-size="12.00" fill="#b5e4f4">SpatialMemory</text>
</g>
<!-- FoxgloveBridge -->
<g id="node7" class="node">
<title>FoxgloveBridge</title>
<polygon fill="#0b0f0f" stroke="#5c9ff0" points="216.68,-106 116.03,-106 116.03,-70 216.68,-70 216.68,-106"/>
<text xml:space="preserve" text-anchor="middle" x="166.35" y="-85.22" font-family="fixed" font-size="12.00" fill="#b5e4f4">FoxgloveBridge</text>
</g>
<!-- GO2Connection -->
<g id="node8" class="node">
<title>GO2Connection</title>
<polygon fill="#0b0f0f" stroke="#5c9ff0" points="218.55,-214 114.15,-214 114.15,-178 218.55,-178 218.55,-214"/>
<text xml:space="preserve" text-anchor="middle" x="166.35" y="-193.22" font-family="fixed" font-size="12.00" fill="#b5e4f4">GO2Connection</text>
</g>
<!-- chan_camera_info_CameraInfo -->
<g id="node10" class="node">
<title>chan_camera_info_CameraInfo</title>
<polygon fill="#dce775" fill-opacity="0.207843" stroke="#dce775" points="394.38,-340.73 269.55,-340.73 269.55,-319.27 397.95,-319.27 397.95,-337.15 394.38,-340.73"/>
<polyline fill="none" stroke="#dce775" points="394.38,-340.73 394.38,-337.15"/>
<polyline fill="none" stroke="#dce775" points="397.95,-337.15 394.38,-337.15"/>
<text xml:space="preserve" text-anchor="middle" x="333.75" y="-327.62" font-family="fixed" font-size="10.00" fill="#b5e4f4">camera_info:CameraInfo</text>
</g>
<!-- GO2Connection&#45;&gt;chan_camera_info_CameraInfo -->
<g id="edge1" class="edge">
<title>GO2Connection&#45;&gt;chan_camera_info_CameraInfo</title>
<path fill="none" stroke="#dce775" d="M177.61,-214.38C191.87,-238.32 219.89,-279.97 254.55,-304 263.6,-310.28 274.28,-315.13 284.8,-318.85"/>
</g>
<!-- chan_color_image_Image -->
<g id="node12" class="node">
<title>chan_color_image_Image</title>
<polygon fill="#95e1d3" fill-opacity="0.207843" stroke="#95e1d3" points="382,-294.73 281.93,-294.73 281.93,-273.27 385.57,-273.27 385.57,-291.15 382,-294.73"/>
<polyline fill="none" stroke="#95e1d3" points="382,-294.73 382,-291.15"/>
<polyline fill="none" stroke="#95e1d3" points="385.57,-291.15 382,-291.15"/>
<text xml:space="preserve" text-anchor="middle" x="333.75" y="-281.62" font-family="fixed" font-size="10.00" fill="#b5e4f4">color_image:Image</text>
</g>
<!-- GO2Connection&#45;&gt;chan_color_image_Image -->
<g id="edge5" class="edge">
<title>GO2Connection&#45;&gt;chan_color_image_Image</title>
<path fill="none" stroke="#95e1d3" d="M202.02,-214.45C235.18,-232.09 284.09,-258.11 311.73,-272.81"/>
</g>
<!-- chan_lidar_LidarMessage -->
<g id="node16" class="node">
<title>chan_lidar_LidarMessage</title>
<polygon fill="#7986cb" fill-opacity="0.207843" stroke="#7986cb" points="381.25,-199.72 282.68,-199.72 282.68,-178.28 384.82,-178.28 384.82,-196.15 381.25,-199.72"/>
<polyline fill="none" stroke="#7986cb" points="381.25,-199.72 381.25,-196.15"/>
<polyline fill="none" stroke="#7986cb" points="384.82,-196.15 381.25,-196.15"/>
<text xml:space="preserve" text-anchor="middle" x="333.75" y="-186.62" font-family="fixed" font-size="10.00" fill="#b5e4f4">lidar:LidarMessage</text>
</g>
<!-- GO2Connection&#45;&gt;chan_lidar_LidarMessage -->
<g id="edge16" class="edge">
<title>GO2Connection&#45;&gt;chan_lidar_LidarMessage</title>
<path fill="none" stroke="#7986cb" d="M218.78,-193.82C238.98,-192.97 262.09,-191.99 282.21,-191.14"/>
</g>
<!-- Map -->
<g id="node9" class="node">
<title>Map</title>
<polygon fill="#0b0f0f" stroke="#5c9ff0" points="193.35,-160 139.35,-160 139.35,-124 193.35,-124 193.35,-160"/>
<text xml:space="preserve" text-anchor="middle" x="166.35" y="-139.22" font-family="fixed" font-size="12.00" fill="#b5e4f4">Map</text>
</g>
<!-- chan_global_costmap_OccupancyGrid -->
<g id="node13" class="node">
<title>chan_global_costmap_OccupancyGrid</title>
<polygon fill="#ff8a65" fill-opacity="0.207843" stroke="#ff8a65" points="409.38,-152.72 254.55,-152.72 254.55,-131.28 412.95,-131.28 412.95,-149.15 409.38,-152.72"/>
<polyline fill="none" stroke="#ff8a65" points="409.38,-152.72 409.38,-149.15"/>
<polyline fill="none" stroke="#ff8a65" points="412.95,-149.15 409.38,-149.15"/>
<text xml:space="preserve" text-anchor="middle" x="333.75" y="-139.62" font-family="fixed" font-size="10.00" fill="#b5e4f4">global_costmap:OccupancyGrid</text>
</g>
<!-- Map&#45;&gt;chan_global_costmap_OccupancyGrid -->
<g id="edge8" class="edge">
<title>Map&#45;&gt;chan_global_costmap_OccupancyGrid</title>
<path fill="none" stroke="#ff8a65" d="M193.56,-142C210.05,-142 232.27,-142 254.12,-142"/>
</g>
<!-- chan_local_costmap_OccupancyGrid -->
<g id="node17" class="node">
<title>chan_local_costmap_OccupancyGrid</title>
<polygon fill="#f06292" fill-opacity="0.207843" stroke="#f06292" points="405.62,-100.72 258.3,-100.72 258.3,-79.28 409.2,-79.28 409.2,-97.15 405.62,-100.72"/>
<polyline fill="none" stroke="#f06292" points="405.62,-100.72 405.62,-97.15"/>
<polyline fill="none" stroke="#f06292" points="409.2,-97.15 405.62,-97.15"/>
<text xml:space="preserve" text-anchor="middle" x="333.75" y="-87.62" font-family="fixed" font-size="10.00" fill="#b5e4f4">local_costmap:OccupancyGrid</text>
</g>
<!-- Map&#45;&gt;chan_local_costmap_OccupancyGrid -->
<g id="edge18" class="edge">
<title>Map&#45;&gt;chan_local_costmap_OccupancyGrid</title>
<path fill="none" stroke="#f06292" d="M193.56,-133.76C221.52,-124.97 266,-110.99 297.13,-101.2"/>
</g>
<!-- chan_camera_info_CameraInfo&#45;&gt;ObjectTracking -->
<g id="edge2" class="edge">
<title>chan_camera_info_CameraInfo&#45;&gt;ObjectTracking</title>
<path fill="none" stroke="#dce775" d="M398.43,-332.6C421.69,-333.55 447.9,-334.61 470.83,-335.55"/>
<polygon fill="#dce775" stroke="#dce775" points="470.49,-339.04 480.62,-335.95 470.78,-332.04 470.49,-339.04"/>
</g>
<!-- chan_cmd_vel_Twist&#45;&gt;GO2Connection -->
<g id="edge4" class="edge">
<title>chan_cmd_vel_Twist&#45;&gt;GO2Connection</title>
<path fill="none" stroke="#4db6ac" d="M52.09,-127.91C64.86,-139.14 85.96,-156.69 106.15,-169 107.99,-170.12 109.89,-171.23 111.83,-172.32"/>
<polygon fill="#4db6ac" stroke="#4db6ac" points="109.91,-175.26 120.39,-176.85 113.19,-169.08 109.91,-175.26"/>
</g>
<!-- chan_color_image_Image&#45;&gt;ObjectTracking -->
<g id="edge7" class="edge">
<title>chan_color_image_Image&#45;&gt;ObjectTracking</title>
<path fill="none" stroke="#95e1d3" d="M375.39,-295.19C403.1,-302.82 440.24,-313.04 471.28,-321.59"/>
<polygon fill="#95e1d3" stroke="#95e1d3" points="469.95,-324.85 480.52,-324.13 471.81,-318.1 469.95,-324.85"/>
</g>
<!-- chan_color_image_Image&#45;&gt;SpatialMemory -->
<g id="edge6" class="edge">
<title>chan_color_image_Image&#45;&gt;SpatialMemory</title>
<path fill="none" stroke="#95e1d3" d="M386.03,-284C411.75,-284 443.09,-284 470.03,-284"/>
<polygon fill="#95e1d3" stroke="#95e1d3" points="469.76,-287.5 479.76,-284 469.76,-280.5 469.76,-287.5"/>
</g>
<!-- chan_global_costmap_OccupancyGrid&#45;&gt;AstarPlanner -->
<g id="edge9" class="edge">
<title>chan_global_costmap_OccupancyGrid&#45;&gt;AstarPlanner</title>
<path fill="none" stroke="#ff8a65" d="M375.39,-130.81C404.6,-122.77 444.31,-111.84 476.29,-103.04"/>
<polygon fill="#ff8a65" stroke="#ff8a65" points="477.07,-106.45 485.79,-100.42 475.21,-99.7 477.07,-106.45"/>
</g>
<!-- chan_global_costmap_OccupancyGrid&#45;&gt;BehaviorTreeNavigator -->
<g id="edge10" class="edge">
<title>chan_global_costmap_OccupancyGrid&#45;&gt;BehaviorTreeNavigator</title>
<path fill="none" stroke="#ff8a65" d="M413.4,-142C424.75,-142 436.47,-142 447.9,-142"/>
<polygon fill="#ff8a65" stroke="#ff8a65" points="447.7,-145.5 457.7,-142 447.7,-138.5 447.7,-145.5"/>
</g>
<!-- chan_global_costmap_OccupancyGrid&#45;&gt;WavefrontFrontierExplorer -->
<g id="edge11" class="edge">
<title>chan_global_costmap_OccupancyGrid&#45;&gt;WavefrontFrontierExplorer</title>
<path fill="none" stroke="#ff8a65" d="M375.39,-153.19C397.88,-159.38 426.59,-167.28 453.2,-174.61"/>
<polygon fill="#ff8a65" stroke="#ff8a65" points="452.03,-177.92 462.6,-177.2 453.88,-171.17 452.03,-177.92"/>
</g>
<!-- chan_goal_reached_Bool&#45;&gt;WavefrontFrontierExplorer -->
<g id="edge13" class="edge">
<title>chan_goal_reached_Bool&#45;&gt;WavefrontFrontierExplorer</title>
<path fill="none" stroke="#dce775" d="M678.36,-157.22C659.08,-162.36 635.57,-168.63 613.11,-174.61"/>
<polygon fill="#dce775" stroke="#dce775" points="612.42,-171.18 603.66,-177.13 614.22,-177.94 612.42,-171.18"/>
</g>
<!-- chan_goal_request_PoseStamped&#45;&gt;BehaviorTreeNavigator -->
<g id="edge15" class="edge">
<title>chan_goal_request_PoseStamped&#45;&gt;BehaviorTreeNavigator</title>
<path fill="none" stroke="#fff59d" d="M678.36,-180.78C659.08,-175.64 635.57,-169.37 613.11,-163.39"/>
<polygon fill="#fff59d" stroke="#fff59d" points="614.22,-160.06 603.66,-160.87 612.42,-166.82 614.22,-160.06"/>
</g>
<!-- chan_lidar_LidarMessage&#45;&gt;Map -->
<g id="edge17" class="edge">
<title>chan_lidar_LidarMessage&#45;&gt;Map</title>
<path fill="none" stroke="#7986cb" d="M293.42,-177.82C266.4,-170.15 230.78,-160.03 204.3,-152.5"/>
<polygon fill="#7986cb" stroke="#7986cb" points="205.59,-149.23 195.01,-149.86 203.68,-155.96 205.59,-149.23"/>
</g>
<!-- chan_local_costmap_OccupancyGrid&#45;&gt;HolonomicLocalPlanner -->
<g id="edge19" class="edge">
<title>chan_local_costmap_OccupancyGrid&#45;&gt;HolonomicLocalPlanner</title>
<path fill="none" stroke="#f06292" d="M373.97,-78.8C397.27,-72.15 427.59,-63.5 455.36,-55.57"/>
<polygon fill="#f06292" stroke="#f06292" points="456.15,-58.98 464.81,-52.87 454.23,-52.25 456.15,-58.98"/>
</g>
<!-- chan_path_Path&#45;&gt;HolonomicLocalPlanner -->
<g id="edge21" class="edge">
<title>chan_path_Path&#45;&gt;HolonomicLocalPlanner</title>
<path fill="none" stroke="#f06292" d="M691.32,-48.36C671.66,-46.58 644.61,-44.13 618.43,-41.75"/>
<polygon fill="#f06292" stroke="#f06292" points="619.07,-38.3 608.79,-40.88 618.43,-45.27 619.07,-38.3"/>
</g>
<!-- chan_target_PoseStamped&#45;&gt;AstarPlanner -->
<g id="edge23" class="edge">
<title>chan_target_PoseStamped&#45;&gt;AstarPlanner</title>
<path fill="none" stroke="#ff6b6b" d="M666.44,-94.41C641.76,-93.22 612.58,-91.82 587.8,-90.63"/>
<polygon fill="#ff6b6b" stroke="#ff6b6b" points="588.06,-87.14 577.91,-90.16 587.73,-94.14 588.06,-87.14"/>
</g>
</g>
</svg>
